<?xml version="1.0" standalone="no"?>
<!DOCTYPE svg PUBLIC "-//W3C//DTD SVG 20010904//EN"
 "http://www.w3.org/TR/2001/REC-SVG-20010904/DTD/svg10.dtd">
<svg version="1.0" xmlns="http://www.w3.org/2000/svg"
 width="229.000000pt" height="44.000000pt" viewBox="0 0 229.000000 44.000000"
 preserveAspectRatio="xMidYMid meet">

<g transform="translate(0.000000,44.000000) scale(0.100000,-0.100000)"
fill="#000000" stroke="none">
<path d="M1888 399 c-27 -15 -23 -57 7 -71 19 -8 28 -8 40 2 21 18 19 57 -4
70 -23 12 -22 12 -43 -1z"/>
<path d="M580 384 c-45 -20 -87 -59 -111 -106 -23 -45 -25 -137 -5 -176 65
-124 260 -119 339 9 62 101 39 217 -53 266 -50 27 -118 30 -170 7z m163 -84
c21 -24 27 -40 27 -76 0 -85 -62 -147 -146 -147 -54 0 -89 23 -104 68 -44 134
132 257 223 155z"/>
<path d="M70 381 c0 -3 28 -86 62 -183 l63 -178 31 0 c25 0 34 6 42 28 17 41
122 334 122 338 0 2 -15 4 -33 4 l-33 0 -43 -122 c-24 -68 -47 -126 -51 -131
-3 -4 -26 50 -51 120 -44 126 -45 127 -77 129 -18 1 -32 -1 -32 -5z"/>
<path d="M940 205 l0 -185 85 0 85 0 0 35 0 35 -50 0 -50 0 0 150 0 150 -35 0
-35 0 0 -185z"/>
<path d="M1265 238 c-32 -84 -64 -168 -72 -186 l-13 -32 35 0 c32 0 37 4 51
40 l16 40 79 0 78 0 12 -40 c11 -36 15 -40 46 -40 18 0 33 3 33 7 0 4 -30 87
-67 185 l-68 178 -36 0 -36 0 -58 -152z m114 10 c38 -90 39 -88 -18 -88 -28 0
-51 3 -51 7 0 10 44 123 48 123 1 0 11 -19 21 -42z"/>
<path d="M1600 355 c0 -32 2 -35 30 -35 l30 0 0 -150 0 -150 35 0 35 0 0 150
0 150 35 0 c33 0 35 2 35 35 l0 35 -100 0 -100 0 0 -35z"/>
<path d="M2060 205 l0 -185 85 0 85 0 0 35 0 35 -55 0 -55 0 0 150 0 150 -30
0 -30 0 0 -185z"/>
<path d="M1880 155 l0 -135 30 0 30 0 0 135 0 135 -30 0 -30 0 0 -135z"/>
</g>
</svg>
