<?xml version="1.0" standalone="no"?>
<!DOCTYPE svg PUBLIC "-//W3C//DTD SVG 20010904//EN"
 "http://www.w3.org/TR/2001/REC-SVG-20010904/DTD/svg10.dtd">
<svg version="1.0" xmlns="http://www.w3.org/2000/svg"
 width="213.000000pt" height="44.000000pt" viewBox="0 0 213.000000 44.000000"
 preserveAspectRatio="xMidYMid meet">

<g transform="translate(0.000000,44.000000) scale(0.100000,-0.100000)"
fill="#000000" stroke="none">
<path d="M40 235 l0 -135 35 0 35 0 0 135 0 135 -35 0 -35 0 0 -135z m50 0 c0
-104 -2 -125 -15 -125 -13 0 -15 21 -15 125 0 104 2 125 15 125 13 0 15 -21
15 -125z"/>
<path d="M170 235 l0 -135 30 0 30 0 0 78 1 77 72 -78 c56 -61 78 -77 100 -77
l27 0 0 135 0 135 -35 0 -35 0 0 -80 0 -81 -71 81 c-52 58 -77 80 -95 80 l-24
0 0 -135z m122 29 l83 -96 3 96 c2 76 6 96 17 96 12 0 15 -22 15 -125 0 -103
-3 -125 -15 -125 -8 0 -49 41 -92 91 l-78 90 -3 -90 c-2 -83 -5 -91 -22 -91
-19 0 -20 7 -20 118 0 113 3 132 21 132 5 0 45 -43 91 -96z"/>
<path d="M490 235 l0 -135 30 0 c30 0 30 1 30 55 l0 55 50 0 c49 0 50 1 50 30
0 29 -1 30 -50 30 -43 0 -50 3 -50 20 0 17 7 20 50 20 49 0 50 1 50 30 l0 30
-80 0 -80 0 0 -135z m140 105 c0 -17 -7 -20 -45 -20 -43 0 -45 -1 -45 -30 0
-29 2 -30 45 -30 38 0 45 -3 45 -20 0 -17 -7 -20 -45 -20 l-45 0 0 -55 c0 -48
-2 -55 -20 -55 -19 0 -20 7 -20 125 l0 125 65 0 c58 0 65 -2 65 -20z"/>
<path d="M744 351 c-60 -36 -81 -127 -44 -188 52 -86 172 -94 239 -18 54 61
38 163 -32 205 -42 26 -121 26 -163 1z m141 -5 c79 -33 98 -138 36 -200 -29
-28 -37 -31 -95 -31 -50 0 -69 4 -86 20 -69 61 -57 169 23 209 40 20 78 20
122 2z"/>
<path d="M772 313 c-18 -7 -42 -57 -42 -88 0 -40 50 -85 95 -85 81 0 126 100
70 155 -18 19 -34 25 -67 24 -24 0 -49 -3 -56 -6z m107 -20 c56 -47 21 -137
-53 -137 -54 0 -81 34 -77 96 3 49 88 76 130 41z"/>
<path d="M1160 235 l0 -135 30 0 30 0 0 135 0 135 -30 0 -30 0 0 -135z m50 0
c0 -118 -1 -125 -20 -125 -19 0 -20 7 -20 118 0 120 2 132 27 132 10 0 13 -27
13 -125z"/>
<path d="M1290 235 l0 -135 30 0 29 0 3 77 3 76 65 -76 c51 -61 71 -77 93 -77
l27 0 0 135 0 135 -30 0 -29 0 -3 -80 -3 -80 -69 80 c-50 58 -75 80 -92 80
l-24 0 0 -135z m116 33 l79 -92 5 90 c4 70 8 89 20 89 12 0 15 -22 18 -123 2
-112 1 -122 -15 -121 -10 0 -53 41 -95 90 l-78 90 0 -91 c0 -83 -1 -90 -20
-90 -19 0 -20 7 -20 125 0 96 3 125 13 125 7 0 49 -41 93 -92z"/>
<path d="M1600 235 l0 -135 35 0 35 0 0 55 0 55 45 0 c43 0 45 1 45 30 0 29
-2 30 -45 30 -38 0 -45 3 -45 20 0 17 7 20 45 20 43 0 45 1 45 30 l0 30 -80 0
-80 0 0 -135z m145 105 c0 -11 -13 -16 -47 -18 -46 -3 -48 -5 -48 -32 0 -27 2
-29 48 -32 34 -2 47 -7 47 -18 0 -11 -13 -16 -47 -18 l-48 -3 0 -55 c0 -41 -4
-54 -15 -54 -13 0 -15 21 -15 125 l0 126 63 -3 c47 -2 62 -7 62 -18z"/>
<path d="M1863 350 c-41 -24 -63 -67 -63 -120 0 -56 26 -96 78 -121 127 -62
256 61 196 187 -33 70 -140 98 -211 54z m142 -6 c61 -28 87 -96 61 -158 -20
-47 -68 -76 -129 -76 -40 0 -53 5 -83 33 -111 102 13 267 151 201z"/>
<path d="M1875 295 c-56 -55 -11 -155 70 -155 69 0 115 74 83 133 -18 35 -40
46 -86 47 -32 0 -49 -6 -67 -25z m125 -10 c29 -31 29 -80 1 -109 -51 -51 -150
-2 -137 68 13 65 91 89 136 41z"/>
</g>
</svg>
